<svg width="52" height="52" viewBox="0 0 52 52" fill="none" xmlns="http://www.w3.org/2000/svg">
<path d="M48.5158 13.008C45.0442 6.99502 39.4388 2.69395 32.7322 0.896905C26.0259 -0.900142 19.0209 0.0221471 13.0079 3.49365C6.99498 6.96516 2.69381 12.5706 0.89686 19.2771C-0.900086 25.9836 0.0221017 32.9886 3.49361 39.0015C6.60762 44.3952 11.557 48.4944 17.4299 50.5437C20.2138 51.515 23.1201 51.9998 26.0218 51.9998C29.1768 51.9998 32.3262 51.4264 35.3031 50.2823C35.8266 50.0811 36.0879 49.4935 35.8866 48.97C35.6853 48.4464 35.0976 48.1849 34.5743 48.3865C26.6504 51.4321 18.0722 50.0483 11.6633 45.2377L12.5732 40.4881L13.0116 40.3457C14.6684 39.8074 15.5784 38.0216 15.0404 36.3647L14.7186 35.3745C14.6442 35.1454 14.6446 34.9032 14.7196 34.6743C15.0019 33.8138 14.901 32.8724 14.4429 32.0912C13.9847 31.3101 13.2123 30.7624 12.3236 30.5886L10.0313 30.1407L5.60845 26.778C5.34347 26.5765 4.99663 26.5177 4.67996 26.6204L2.09052 27.4616C2.03558 26.5354 2.03477 25.6096 2.08697 24.6886C2.18914 24.7838 2.25566 24.8485 2.29659 24.8909C2.34727 24.9753 2.41004 25.0527 2.48357 25.1198C2.69502 25.3123 2.88657 25.3997 3.28876 25.3997C3.65834 25.3996 4.20546 25.3259 5.10886 25.1925C5.96564 25.0658 6.81795 24.9231 6.82638 24.9217C7.16794 24.8645 7.45668 24.637 7.59257 24.3186C7.72846 24.0001 7.69261 23.6344 7.49751 23.3482L6.25225 21.5217L8.03589 20.2463C8.15472 20.1613 8.25384 20.0517 8.32646 19.9249L11.0913 15.0982L12.2057 13.904C13.3446 12.6834 13.6696 10.8977 13.0336 9.35432C12.6584 8.44401 12.0031 7.68615 11.1835 7.1754C12.0712 6.47756 13.0176 5.83325 14.0235 5.25262C17.7141 3.12183 21.7416 2.08925 25.7269 2.04974L23.9134 4.32464L17.1884 6.68221C16.9153 6.77788 16.6959 6.98568 16.5856 7.25319L14.7075 11.806C14.5742 12.1295 14.6165 12.4986 14.8198 12.7834L17.5628 16.6257C17.1699 16.9841 16.7875 17.5061 16.3308 18.1543C16.1305 18.4386 15.9414 18.707 15.8107 18.8575C15.6971 18.9885 15.5833 19.1165 15.4706 19.2433C14.8806 19.907 14.2706 20.5934 13.8372 21.5103C12.8844 23.5273 13.0768 25.8715 14.3395 27.6284C15.5604 29.327 17.5731 30.1905 19.7214 29.9378C20.0714 29.8968 20.3977 29.816 20.7134 29.7378C21.5841 29.5224 21.86 29.5009 22.1393 29.7623C22.2752 29.8895 22.2876 29.9136 22.2849 30.3452C22.283 30.6198 22.2808 30.9614 22.3755 31.3515C22.5271 31.9756 22.9191 32.407 23.2339 32.7535C23.3904 32.9257 23.5523 33.1038 23.6022 33.2233C23.9189 33.9824 23.781 34.4028 23.4788 35.324C23.4529 35.4028 23.4265 35.4832 23.4 35.5657C22.9408 36.987 23.5808 38.3969 24.1455 39.6407C24.329 40.0446 24.5021 40.4258 24.6156 40.7628C25.5287 43.4724 26.2132 44.093 26.7626 44.3428C27.0503 44.4736 27.3481 44.531 27.6489 44.5309C29.113 44.5308 30.6407 43.1715 31.3425 42.3097C31.7832 41.7686 31.8918 41.2268 31.971 40.831C32.0105 40.6341 32.0416 40.4788 32.1009 40.3772C32.1917 40.2218 32.2987 40.1013 32.4341 39.9488C32.7063 39.6422 33.0452 39.2607 33.2647 38.5692C33.4315 38.0439 33.5527 37.9151 33.9539 37.4877C34.0238 37.4135 34.0983 37.3341 34.1782 37.2471C35.5309 35.7752 35.1825 34.6508 34.8136 33.4603C34.5031 32.4586 35.0461 31.8179 36.3591 30.5952C36.9283 30.0651 37.5167 29.5171 37.9716 28.8586C38.1707 28.5703 38.7763 27.6936 38.4016 26.8245C38.0342 25.9724 37.1005 25.8292 36.3504 25.7142C36.0541 25.6687 35.6065 25.6001 35.464 25.5069C34.8356 25.0961 34.4512 24.2387 34.0794 23.4095C34.0053 23.2444 33.9323 23.0815 33.8583 22.9234C33.7262 22.6412 33.5943 22.2999 33.4547 21.9385C33.0852 20.9822 32.6664 19.8982 31.9536 19.1426C31.3128 18.4637 30.1049 18.1366 29.0392 17.848C28.6808 17.751 28.3425 17.6594 28.1194 17.577C27.9324 17.508 27.7295 17.4955 27.5359 17.541C27.0172 17.6625 26.6936 17.7965 26.4533 17.9891C26.3899 18.0399 26.2019 18.207 26.0918 18.4755C25.72 18.2971 25.2087 17.9564 24.894 17.7466C24.8875 17.7423 24.8809 17.7379 24.8744 17.7335C24.9805 17.3092 24.8845 16.9687 24.784 16.756C24.2166 15.5559 22.3334 15.6499 21.9618 15.6815C21.7508 15.6991 21.4838 15.7086 21.2013 15.7185C20.7577 15.7343 20.2674 15.7519 19.7822 15.8064L19.8072 15.7367C20.1755 14.7106 21.1553 14.0212 22.2455 14.0212H22.8229C23.3836 14.0212 23.8384 13.5664 23.8384 13.0057C23.8384 12.445 23.3836 11.9902 22.8229 11.9902H22.2455C20.627 11.9902 19.1449 12.842 18.3142 14.1827L16.7994 12.0608L18.2897 8.44828L24.8611 6.14444C25.0413 6.08126 25.2002 5.96853 25.3193 5.81913L28.2405 2.15486C35.7048 2.86488 42.7309 7.04987 46.757 14.0234C47.8294 15.8808 48.6227 17.8363 49.1501 19.8364L48.7196 20.2203C48.1576 20.7217 47.8284 21.4409 47.8158 22.1935C47.8157 22.2018 47.8155 22.2099 47.8152 22.218L47.1138 20.2891C47.0093 20.0013 46.8553 19.7374 46.6565 19.5047L45.4053 18.0398C44.9202 17.472 44.214 17.1465 43.4674 17.1465H41.9359C41.3923 17.1465 40.8954 17.4443 40.639 17.9234C40.3825 18.4025 40.4106 18.9812 40.7121 19.4334L40.8671 19.6661C39.8775 20.5171 38.7329 21.198 37.5141 21.6573L35.4148 17.6361V16.739C35.4148 16.4616 35.3013 16.196 35.1005 16.0045L33.2101 14.1999C33.1058 14.1003 32.9815 14.0242 32.8455 13.9763L31.1438 13.3783C30.6144 13.1921 30.0348 13.4706 29.849 13.9997C29.663 14.5289 29.9412 15.1085 30.4703 15.2945L31.9657 15.8201L33.3838 17.1736V17.8854C33.3838 18.049 33.4234 18.2103 33.4991 18.3554L36.1273 23.3895C36.3636 23.8425 36.9001 24.0495 37.3788 23.8724L38.1441 23.5902C39.9219 22.9345 41.5698 21.8798 42.9096 20.5402C43.2519 20.1978 43.3051 19.6617 43.0365 19.2588L42.9824 19.1776H43.4674C43.619 19.1776 43.7625 19.2438 43.861 19.3591L45.1122 20.824C45.1525 20.8712 45.1837 20.9246 45.205 20.9832L46.5858 24.7799C46.7044 25.1062 46.9815 25.3491 47.3201 25.4242C47.3932 25.4404 47.4668 25.4483 47.5401 25.4483C47.8064 25.4483 48.0657 25.3434 48.2581 25.1508L48.9153 24.4936C49.3315 24.0773 49.618 23.5506 49.7549 22.9667C50.7714 31.1126 47.5773 39.539 40.8261 44.8379C40.3848 45.1841 40.3078 45.8225 40.6542 46.2638C41.0004 46.705 41.6387 46.782 42.08 46.4356C46.9542 42.61 50.3028 37.1384 51.5088 31.0285C52.7261 24.8597 51.6633 18.4597 48.5158 13.008ZM4.80204 28.7164L8.98977 31.9005C9.11357 31.9946 9.25718 32.059 9.40973 32.0888L11.9338 32.582C12.2559 32.6449 12.5246 32.8355 12.6907 33.1186C12.8568 33.4017 12.8917 33.7292 12.7895 34.0411C12.5793 34.6823 12.5783 35.3604 12.7868 36.002L13.1085 36.992C13.3008 37.5837 12.9756 38.2216 12.384 38.4139L11.3748 38.7418C11.0226 38.8562 10.7608 39.1532 10.6912 39.5166L9.87895 43.7567C8.09317 42.1222 6.52525 40.1905 5.25257 37.9861C3.69988 35.297 2.72976 32.4288 2.30218 29.5286L4.80204 28.7164ZM10.7208 12.5183L9.52612 13.7983C9.4728 13.8555 9.42618 13.9186 9.38728 13.9865L6.67434 18.723L4.26315 20.4471C3.81404 20.7682 3.70374 21.3891 4.01473 21.8453L4.9165 23.168C4.3967 23.2454 3.93023 23.3092 3.62006 23.343C3.56044 23.2859 3.49808 23.2279 3.43359 23.1679C3.19217 22.9437 2.85671 22.6442 2.35662 22.2065C3.18141 17.1017 5.64125 12.2925 9.50997 8.62154C10.2508 8.85483 10.8587 9.40744 11.1557 10.1282C11.4898 10.9389 11.319 11.8771 10.7208 12.5183ZM19.0012 18.068C19.4542 17.8131 20.5055 17.7758 21.2731 17.7486C21.5808 17.7377 21.8714 17.7273 22.131 17.7056C22.268 17.6941 22.4202 17.6963 22.5637 17.7074C22.4996 17.872 22.4788 18.0525 22.5066 18.2317C22.5555 18.5468 22.7498 18.8206 23.0309 18.971C23.2214 19.0729 23.4866 19.2498 23.7673 19.4369C24.561 19.9661 25.4608 20.5658 26.306 20.6196C27.0746 20.6695 27.5023 20.2315 27.6855 20.0449C27.7001 20.0301 27.7139 20.0152 27.7286 20.0017C27.8317 19.9176 27.9284 19.8049 28.0003 19.6689C28.1627 19.7153 28.3334 19.7615 28.5083 19.809C29.1096 19.9718 30.2289 20.2748 30.4762 20.5369C30.9155 21.0025 31.2579 21.8889 31.56 22.6708C31.7127 23.066 31.8569 23.4389 32.0187 23.7847C32.0881 23.9331 32.1565 24.086 32.2259 24.2407C32.6946 25.286 33.2257 26.4708 34.3526 27.2074C34.8635 27.5414 35.4899 27.6374 36.0426 27.7222C36.1094 27.7325 36.186 27.7442 36.2638 27.757C35.9357 28.2147 35.4686 28.6496 34.9751 29.1091C33.7179 30.28 32.1532 31.7372 32.8738 34.0618C33.2139 35.1595 33.2298 35.2781 32.6829 35.8731C32.6083 35.9543 32.5389 36.0282 32.4738 36.0975C32.0054 36.5961 31.6354 36.99 31.3291 37.9548C31.2401 38.235 31.1248 38.3648 30.9155 38.6005C30.7481 38.789 30.5396 39.0238 30.3473 39.3528C30.117 39.7471 30.0408 40.1267 29.9798 40.4317C29.9196 40.7318 29.8854 40.8825 29.7676 41.0271C29.4994 41.3564 28.9991 41.8345 28.4855 42.1608C28.0082 42.4639 27.7295 42.5053 27.6345 42.4996C27.5261 42.3835 27.1336 41.8747 26.5405 40.1143C26.3942 39.6801 26.1913 39.2332 25.9951 38.801C25.5625 37.8484 25.1154 36.8632 25.3329 36.19C25.3586 36.1106 25.384 36.033 25.409 35.9571C25.7565 34.8978 26.0846 33.8975 25.4768 32.4411C25.2918 31.9976 24.9971 31.6735 24.7374 31.3875C24.5694 31.2025 24.3789 30.9929 24.3496 30.8723C24.3138 30.7251 24.3149 30.5552 24.3163 30.3585C24.3197 29.8278 24.325 29.026 23.5278 28.2795C22.4039 27.2275 21.0934 27.5516 20.226 27.7661C19.9596 27.8319 19.708 27.8942 19.4849 27.9205C18.0582 28.0876 16.7844 27.5493 15.9891 26.4427C15.1573 25.2852 15.0365 23.7275 15.6741 22.3778C15.9828 21.7246 16.449 21.1999 16.9889 20.5925C17.1068 20.4598 17.2259 20.3259 17.3449 20.1888C17.543 19.9605 17.7609 19.6513 17.9914 19.324C18.2665 18.9335 18.7788 18.2063 19.0012 18.068Z" fill="black"/>
</svg>
