<svg width="18" height="20" viewBox="0 0 18 20" fill="none" xmlns="http://www.w3.org/2000/svg">
<path d="M11.9997 4.75C11.9997 3.88805 11.657 3.06164 11.0475 2.45215C10.438 1.84266 9.61162 1.5 8.74967 1.5C7.88771 1.5 7.06131 1.84266 6.45182 2.45215C5.84232 3.06164 5.49967 3.88805 5.49967 4.75V6H11.9997V4.75ZM11.9997 8.75V7.5H5.49967V8.75C5.49967 9.16421 5.16388 9.5 4.74967 9.5C4.33545 9.5 3.99967 9.16421 3.99967 8.75V7.5H2.43912L1.56412 18H15.9352L15.0602 7.5H13.4997V8.75C13.4997 9.16421 13.1639 9.5 12.7497 9.5C12.3355 9.5 11.9997 9.16421 11.9997 8.75ZM13.4997 6H15.7497C16.1397 6 16.4642 6.2989 16.4967 6.6875L17.4967 18.6875C17.5142 18.8965 17.4434 19.1035 17.3014 19.2578C17.1594 19.4121 16.9594 19.5 16.7497 19.5H0.749669C0.53996 19.5 0.339923 19.4121 0.197911 19.2578C0.0558944 19.1035 -0.0148196 18.8965 0.00259824 18.6875L1.0026 6.6875L1.02799 6.54688C1.11715 6.22912 1.40829 6 1.74967 6H3.99967V4.75C3.99967 3.49022 4.50047 2.2824 5.39127 1.3916C6.28207 0.500804 7.48989 0 8.74967 0C10.0094 0 11.2173 0.500804 12.1081 1.3916C12.9989 2.2824 13.4997 3.49022 13.4997 4.75V6Z" fill="#2F302C"/>
</svg>
