<svg width="17" height="17" viewBox="0 0 17 17" fill="none" xmlns="http://www.w3.org/2000/svg">
<path fill-rule="evenodd" clip-rule="evenodd" d="M15.876 0H0.924C0.413689 0 0 0.413689 0 0.924V15.876C0 16.1211 0.0973497 16.3561 0.270633 16.5294C0.443917 16.7027 0.67894 16.8 0.924 16.8H8.9712V10.29H6.7872V7.77H8.9712V5.88C8.87962 4.9818 9.18969 4.08905 9.81831 3.44099C10.4469 2.79292 11.3298 2.45581 12.2304 2.52C12.8842 2.51598 13.5377 2.54963 14.1876 2.6208V4.8888H12.852C11.7936 4.8888 11.592 5.3928 11.592 6.1236V7.7448H14.112L13.7844 10.2648H11.592V16.8H15.876C16.1211 16.8 16.3561 16.7027 16.5294 16.5294C16.7027 16.3561 16.8 16.1211 16.8 15.876V0.924C16.8 0.67894 16.7027 0.443917 16.5294 0.270633C16.3561 0.0973497 16.1211 0 15.876 0Z" fill="#2F302C"/>
</svg>
