<svg width="18" height="18" viewBox="0 0 18 18" fill="none" xmlns="http://www.w3.org/2000/svg">
<path d="M6 12.75C6 12.4185 5.86821 12.1006 5.63379 11.8662C5.39937 11.6318 5.08152 11.5 4.75 11.5H2.75C2.41848 11.5 2.10063 11.6318 1.86621 11.8662C1.63179 12.1006 1.5 12.4185 1.5 12.75V14.75C1.5 15.0815 1.63179 15.3994 1.86621 15.6338C2.10063 15.8682 2.41848 16 2.75 16H4.75C5.08152 16 5.39937 15.8682 5.63379 15.6338C5.86821 15.3994 6 15.0815 6 14.75V12.75ZM16 12.75C16 12.4185 15.8682 12.1006 15.6338 11.8662C15.3994 11.6318 15.0815 11.5 14.75 11.5H12.75C12.4185 11.5 12.1006 11.6318 11.8662 11.8662C11.6318 12.1006 11.5 12.4185 11.5 12.75V14.75C11.5 15.0815 11.6318 15.3994 11.8662 15.6338C12.1006 15.8682 12.4185 16 12.75 16H14.75C15.0815 16 15.3994 15.8682 15.6338 15.6338C15.8682 15.3994 16 15.0815 16 14.75V12.75ZM6 2.75C6 2.41848 5.86821 2.10063 5.63379 1.86621C5.39937 1.63179 5.08152 1.5 4.75 1.5H2.75C2.41848 1.5 2.10063 1.63179 1.86621 1.86621C1.63179 2.10063 1.5 2.41848 1.5 2.75V4.75C1.5 5.08152 1.63179 5.39937 1.86621 5.63379C2.10063 5.86821 2.41848 6 2.75 6H4.75C5.08152 6 5.39937 5.86821 5.63379 5.63379C5.86821 5.39937 6 5.08152 6 4.75V2.75ZM16 2.75C16 2.41848 15.8682 2.10063 15.6338 1.86621C15.3994 1.63179 15.0815 1.5 14.75 1.5H12.75C12.4185 1.5 12.1006 1.63179 11.8662 1.86621C11.6318 2.10063 11.5 2.41848 11.5 2.75V4.75C11.5 5.08152 11.6318 5.39937 11.8662 5.63379C12.1006 5.86821 12.4185 6 12.75 6H14.75C15.0815 6 15.3994 5.86821 15.6338 5.63379C15.8682 5.39937 16 5.08152 16 4.75V2.75ZM7.5 14.75C7.5 15.4793 7.21006 16.1786 6.69434 16.6943C6.17861 17.2101 5.47935 17.5 4.75 17.5H2.75C2.02065 17.5 1.32139 17.2101 0.805664 16.6943C0.289939 16.1786 0 15.4793 0 14.75V12.75C0 12.0207 0.289939 11.3214 0.805664 10.8057C1.32139 10.2899 2.02065 10 2.75 10H4.75C5.47935 10 6.17861 10.2899 6.69434 10.8057C7.21006 11.3214 7.5 12.0207 7.5 12.75V14.75ZM17.5 14.75C17.5 15.4793 17.2101 16.1786 16.6943 16.6943C16.1786 17.2101 15.4793 17.5 14.75 17.5H12.75C12.0207 17.5 11.3214 17.2101 10.8057 16.6943C10.2899 16.1786 10 15.4793 10 14.75V12.75C10 12.0207 10.2899 11.3214 10.8057 10.8057C11.3214 10.2899 12.0207 10 12.75 10H14.75C15.4793 10 16.1786 10.2899 16.6943 10.8057C17.2101 11.3214 17.5 12.0207 17.5 12.75V14.75ZM7.5 4.75C7.5 5.47935 7.21006 6.17861 6.69434 6.69434C6.17861 7.21006 5.47935 7.5 4.75 7.5H2.75C2.02065 7.5 1.32139 7.21006 0.805664 6.69434C0.289939 6.17861 0 5.47935 0 4.75V2.75C0 2.02065 0.289939 1.32139 0.805664 0.805664C1.32139 0.289939 2.02065 0 2.75 0H4.75C5.47935 0 6.17861 0.289939 6.69434 0.805664C7.21006 1.32139 7.5 2.02065 7.5 2.75V4.75ZM17.5 4.75C17.5 5.47935 17.2101 6.17861 16.6943 6.69434C16.1786 7.21006 15.4793 7.5 14.75 7.5H12.75C12.0207 7.5 11.3214 7.21006 10.8057 6.69434C10.2899 6.17861 10 5.47935 10 4.75V2.75C10 2.02065 10.2899 1.32139 10.8057 0.805664C11.3214 0.289939 12.0207 0 12.75 0H14.75C15.4793 0 16.1786 0.289939 16.6943 0.805664C17.2101 1.32139 17.5 2.02065 17.5 2.75V4.75Z" fill="#2F302C"/>
</svg>
