<svg width="17" height="17" viewBox="0 0 17 17" fill="none" xmlns="http://www.w3.org/2000/svg">
<path fill-rule="evenodd" clip-rule="evenodd" d="M12.8856 2.9064C12.4779 2.9064 12.1103 3.15199 11.9543 3.52866C11.7983 3.90532 11.8846 4.33888 12.1728 4.62716C12.4611 4.91545 12.8947 5.00169 13.2713 4.84567C13.648 4.68965 13.8936 4.3221 13.8936 3.9144C13.8936 3.3577 13.4423 2.9064 12.8856 2.9064ZM16.7496 4.9392C16.7333 4.24225 16.6027 3.5527 16.3632 2.898C16.1496 2.33783 15.8172 1.83059 15.3888 1.4112C14.9728 0.980638 14.4644 0.650308 13.902 0.4452C13.249 0.198375 12.5587 0.0648564 11.8608 0.0504C10.9704 0 10.6848 0 8.4 0C6.1152 0 5.8296 0 4.9392 0.0504C4.24129 0.0648564 3.55097 0.198375 2.898 0.4452C2.33661 0.652385 1.82862 0.982431 1.4112 1.4112C0.980638 1.82715 0.650308 2.33557 0.4452 2.898C0.198375 3.55097 0.0648564 4.24129 0.0504 4.9392C0 5.8296 0 6.1152 0 8.4C0 10.6848 0 10.9704 0.0504 11.8608C0.0648564 12.5587 0.198375 13.249 0.4452 13.902C0.650308 14.4644 0.980638 14.9728 1.4112 15.3888C1.82862 15.8176 2.33661 16.1476 2.898 16.3548C3.55097 16.6016 4.24129 16.7351 4.9392 16.7496C5.8296 16.8 6.1152 16.8 8.4 16.8C10.6848 16.8 10.9704 16.8 11.8608 16.7496C12.5587 16.7351 13.249 16.6016 13.902 16.3548C14.4644 16.1497 14.9728 15.8194 15.3888 15.3888C15.8191 14.971 16.1518 14.4633 16.3632 13.902C16.6027 13.2473 16.7333 12.5577 16.7496 11.8608C16.7496 10.9704 16.8 10.6848 16.8 8.4C16.8 6.1152 16.8 5.8296 16.7496 4.9392ZM15.2376 11.76C15.2315 12.2932 15.1349 12.8215 14.952 13.3224C14.8179 13.688 14.6025 14.0183 14.322 14.2884C14.0495 14.566 13.7199 14.781 13.356 14.9184C12.8551 15.1013 12.3268 15.1979 11.7936 15.204C10.9536 15.246 10.6428 15.2544 8.4336 15.2544C6.2244 15.2544 5.9136 15.2544 5.0736 15.204C4.51995 15.2144 3.96866 15.1291 3.444 14.952C3.09606 14.8076 2.78154 14.5931 2.52 14.322C2.24119 14.0521 2.02847 13.7216 1.8984 13.356C1.69332 12.8479 1.57957 12.3076 1.5624 11.76C1.5624 10.92 1.512 10.6092 1.512 8.4C1.512 6.1908 1.512 5.88 1.5624 5.04C1.56617 4.49489 1.66568 3.95467 1.8564 3.444C2.00428 3.08945 2.23126 2.77339 2.52 2.52C2.7752 2.23118 3.0906 2.0018 3.444 1.848C3.95602 1.66324 4.49568 1.56667 5.04 1.5624C5.88 1.5624 6.1908 1.512 8.4 1.512C10.6092 1.512 10.92 1.512 11.76 1.5624C12.2932 1.56852 12.8215 1.66509 13.3224 1.848C13.7041 1.98967 14.0467 2.21999 14.322 2.52C14.5973 2.77803 14.8124 3.0935 14.952 3.444C15.1387 3.9555 15.2353 4.49549 15.2376 5.04C15.2796 5.88 15.288 6.1908 15.288 8.4C15.288 10.6092 15.2796 10.92 15.2376 11.76ZM8.4 4.0908C6.02119 4.09544 4.09611 6.02678 4.0992 8.40559C4.10229 10.7844 6.03238 12.7107 8.41119 12.7092C10.79 12.7076 12.7176 10.7788 12.7176 8.4C12.7198 7.25498 12.2654 6.15634 11.455 5.34748C10.6445 4.53862 9.54501 4.08633 8.4 4.0908ZM8.4 11.1972C6.85515 11.1972 5.6028 9.94485 5.6028 8.4C5.6028 6.85515 6.85515 5.6028 8.4 5.6028C9.94485 5.6028 11.1972 6.85515 11.1972 8.4C11.1972 9.14186 10.9025 9.85334 10.3779 10.3779C9.85334 10.9025 9.14186 11.1972 8.4 11.1972Z" fill="#2F302C"/>
</svg>
