<svg width="23" height="23" viewBox="0 0 23 23" fill="none" xmlns="http://www.w3.org/2000/svg">
<path d="M22.0833 12.75V3.41667C22.0833 2.70942 21.8024 2.03115 21.3023 1.53105C20.8022 1.03095 20.1239 0.75 19.4167 0.75H3.41667C2.70942 0.75 2.03115 1.03095 1.53105 1.53105C1.03095 2.03115 0.75 2.70942 0.75 3.41667V12.75M22.0833 12.75V19.4167C22.0833 20.1239 21.8024 20.8022 21.3023 21.3023C20.8022 21.8024 20.1239 22.0833 19.4167 22.0833H3.41667C2.70942 22.0833 2.03115 21.8024 1.53105 21.3023C1.03095 20.8022 0.75 20.1239 0.75 19.4167V12.75M22.0833 12.75H18.6353C18.2817 12.7501 17.9427 12.8906 17.6927 13.1407L14.474 16.3593C14.224 16.6094 13.8849 16.7499 13.5313 16.75H9.302C8.94841 16.7499 8.60932 16.6094 8.35933 16.3593L5.14067 13.1407C4.89068 12.8906 4.55159 12.7501 4.198 12.75H0.75" stroke="#2F302C" stroke-width="1.5" stroke-linecap="round" stroke-linejoin="round"/>
</svg>
