<svg width="26" height="26" viewBox="0 0 26 26" fill="none" xmlns="http://www.w3.org/2000/svg">
<path d="M9.634 19.4167H15.8647M12.75 0.75V2.08333M21.2353 4.26467L20.2927 5.20733M24.75 12.75H23.4167M2.08333 12.75H0.75M5.20733 5.20733L4.26467 4.26467M8.03533 17.4647C7.10316 16.5322 6.4684 15.3444 6.2113 14.0512C5.95421 12.758 6.08634 11.4177 6.59097 10.1996C7.09561 8.98154 7.95009 7.94046 9.04638 7.20799C10.1427 6.47553 11.4315 6.08458 12.75 6.08458C14.0685 6.08458 15.3573 6.47553 16.4536 7.20799C17.5499 7.94046 18.4044 8.98154 18.909 10.1996C19.4137 11.4177 19.5458 12.758 19.2887 14.0512C19.0316 15.3444 18.3968 16.5322 17.4647 17.4647L16.734 18.194C16.3163 18.6118 15.9849 19.1078 15.7589 19.6536C15.5329 20.1995 15.4166 20.7845 15.4167 21.3753V22.0833C15.4167 22.7906 15.1357 23.4689 14.6356 23.969C14.1355 24.469 13.4572 24.75 12.75 24.75C12.0428 24.75 11.3645 24.469 10.8644 23.969C10.3643 23.4689 10.0833 22.7906 10.0833 22.0833V21.3753C10.0833 20.182 9.60867 19.0367 8.766 18.194L8.03533 17.4647Z" stroke="#2F302C" stroke-width="1.5" stroke-linecap="round" stroke-linejoin="round"/>
</svg>
