<svg width="18" height="14" viewBox="0 0 18 14" fill="none" xmlns="http://www.w3.org/2000/svg">
<path d="M16.75 12C17.1642 12 17.5 12.3358 17.5 12.75C17.5 13.1642 17.1642 13.5 16.75 13.5H0.75C0.335786 13.5 0 13.1642 0 12.75C0 12.3358 0.335786 12 0.75 12H16.75ZM16.75 6C17.1642 6 17.5 6.33579 17.5 6.75C17.5 7.16421 17.1642 7.5 16.75 7.5H0.75C0.335786 7.5 0 7.16421 0 6.75C0 6.33579 0.335786 6 0.75 6H16.75ZM16.75 0C17.1642 0 17.5 0.335786 17.5 0.75C17.5 1.16421 17.1642 1.5 16.75 1.5H0.75C0.335786 1.5 0 1.16421 0 0.75C0 0.335786 0.335786 0 0.75 0H16.75Z" fill="#2F302C"/>
</svg>
