<svg width="20" height="17" viewBox="0 0 20 17" fill="none" xmlns="http://www.w3.org/2000/svg">
<path d="M18 5.25C18 4.25545 17.6046 3.30189 16.9014 2.59863C16.1981 1.89539 15.2446 1.5 14.25 1.5C13.2554 1.50001 12.3019 1.89538 11.5986 2.59863L10.2803 3.91602C10.1396 4.05667 9.94891 4.13574 9.75 4.13574C9.5511 4.13573 9.36037 4.05666 9.21973 3.91602L7.90137 2.59863C7.55322 2.25049 7.1404 1.97361 6.68555 1.78516C6.23057 1.5967 5.74246 1.5 5.25 1.5C4.75773 1.50001 4.27025 1.59684 3.81543 1.78516C3.36046 1.97361 2.94685 2.25041 2.59863 2.59863C2.25041 2.94685 1.97361 3.36046 1.78516 3.81543C1.59684 4.27025 1.50001 4.75773 1.5 5.25C1.5 5.74246 1.5967 6.23057 1.78516 6.68555C1.97361 7.1404 2.25049 7.55322 2.59863 7.90137L9.75 15.0527L16.9014 7.90137C17.6046 7.1981 18 6.24457 18 5.25ZM19.5 5.25C19.5 6.64239 18.9465 7.97734 17.9619 8.96191L10.2803 16.6445C10.1396 16.7851 9.94885 16.8643 9.75 16.8643C9.55114 16.8642 9.36036 16.7851 9.21973 16.6445L1.53809 8.96191C1.05059 8.47441 0.663248 7.89573 0.399414 7.25879C0.135676 6.62193 0 5.93931 0 5.25C5.1334e-06 4.56068 0.135663 3.87807 0.399414 3.24121C0.663255 2.60425 1.05057 2.02559 1.53809 1.53809C2.02559 1.05057 2.60425 0.663255 3.24121 0.399414C3.87807 0.135663 4.56068 5.1334e-06 5.25 0C5.93931 0 6.62193 0.135676 7.25879 0.399414C7.89573 0.663248 8.47441 1.05059 8.96191 1.53809L9.75 2.3252L10.5381 1.53809C11.5226 0.553524 12.8576 1.0355e-05 14.25 0C15.6424 0 16.9773 0.553539 17.9619 1.53809C18.9465 2.52265 19.5 3.85762 19.5 5.25Z" fill="#2F302C"/>
</svg>
