<svg width="20" height="20" viewBox="0 0 20 20" fill="none" xmlns="http://www.w3.org/2000/svg">
<path d="M14 7.75C14 6.0924 13.341 4.50316 12.1689 3.33105C10.9968 2.15895 9.4076 1.5 7.75 1.5C6.0924 1.5 4.50316 2.15895 3.33105 3.33105C2.15895 4.50316 1.5 6.0924 1.5 7.75C1.5 8.57069 1.66155 9.38337 1.97559 10.1416C2.28968 10.8999 2.75069 11.5886 3.33105 12.1689C3.91142 12.7493 4.60011 13.2103 5.3584 13.5244C6.11662 13.8385 6.92931 14 7.75 14C8.57069 14 9.38338 13.8385 10.1416 13.5244C10.8999 13.2103 11.5886 12.7493 12.1689 12.1689C12.7493 11.5886 13.2103 10.8999 13.5244 10.1416C13.8385 9.38338 14 8.57069 14 7.75ZM15.5 7.75C15.5 8.76774 15.2996 9.77555 14.9102 10.7158C14.6167 11.4243 14.2199 12.0838 13.7344 12.6738L19.2803 18.2197C19.5732 18.5126 19.5732 18.9874 19.2803 19.2803C18.9874 19.5732 18.5126 19.5732 18.2197 19.2803L12.6738 13.7344C12.0838 14.2199 11.4243 14.6167 10.7158 14.9102C9.77555 15.2996 8.76774 15.5 7.75 15.5C6.73226 15.5 5.72445 15.2996 4.78418 14.9102C3.84391 14.5207 2.98918 13.9501 2.26953 13.2305C1.54988 12.5108 0.979318 11.6561 0.589844 10.7158C0.200373 9.77555 0 8.76774 0 7.75C5.96046e-08 5.69457 0.816124 3.72294 2.26953 2.26953C3.72294 0.816124 5.69457 0 7.75 0C9.80543 0 11.7771 0.816124 13.2305 2.26953C14.6839 3.72294 15.5 5.69457 15.5 7.75Z" fill="#2F302C"/>
</svg>
