<svg width="16" height="16" viewBox="0 0 16 16" fill="none" xmlns="http://www.w3.org/2000/svg">
<path d="M7.23919 2.34166C7.47919 1.60486 8.52159 1.60486 8.76079 2.34166L9.61679 4.97526C9.66908 5.13565 9.77075 5.27541 9.90724 5.37455C10.0437 5.47369 10.2081 5.52714 10.3768 5.52726H13.1464C13.9216 5.52726 14.2432 6.51926 13.6168 6.97526L11.3768 8.60246C11.24 8.70169 11.1382 8.84167 11.0859 9.00234C11.0335 9.16302 11.0334 9.33613 11.0856 9.49686L11.9416 12.1305C12.1816 12.8673 11.3376 13.4809 10.7096 13.0249L8.46959 11.3977C8.33295 11.2985 8.16843 11.245 7.99959 11.245C7.83074 11.245 7.66622 11.2985 7.52959 11.3977L5.28959 13.0249C4.66239 13.4809 3.81919 12.8673 4.05839 12.1305L4.91439 9.49686C4.96652 9.33613 4.96643 9.16302 4.91412 9.00234C4.86181 8.84167 4.75996 8.70169 4.62319 8.60246L2.38399 6.97606C1.75759 6.52006 2.07999 5.52806 2.85439 5.52806H5.62319C5.79202 5.52811 5.95655 5.47473 6.0932 5.37558C6.22986 5.27643 6.33165 5.13658 6.38399 4.97606L7.23999 2.34246L7.23919 2.34166Z" fill="#2F302C"/>
</svg>
