<svg width="17" height="14" viewBox="0 0 17 14" fill="none" xmlns="http://www.w3.org/2000/svg">
<path fill-rule="evenodd" clip-rule="evenodd" d="M16.8 1.6473C16.1686 1.92267 15.5009 2.1047 14.8176 2.18774C15.5385 1.75481 16.0787 1.07374 16.338 0.270853C15.6606 0.67624 14.919 0.961859 14.1456 1.1153C13.0823 -0.0438861 11.3742 -0.334396 9.99078 0.408657C8.60736 1.15171 7.89811 2.74061 8.2656 4.27352C5.49558 4.13267 2.9154 2.8158 1.1676 0.650853C0.864475 1.183 0.705196 1.78564 0.7056 2.39885C0.703417 3.5555 1.27731 4.63646 2.2344 5.27841C1.6867 5.26343 1.1507 5.11568 0.672 4.84774V4.88996C0.680463 6.53493 1.83912 7.94679 3.444 8.26774C3.14433 8.35942 2.83321 8.40776 2.52 8.4113C2.30319 8.40875 2.08691 8.38899 1.8732 8.35219C2.32762 9.75915 3.61919 10.7219 5.0904 10.7504C3.87845 11.7091 2.38214 12.2323 0.84 12.2366C0.559218 12.2376 0.278658 12.2206 0 12.186C1.57452 13.208 3.4094 13.7505 5.2836 13.7482C7.89622 13.7755 10.4101 12.7459 12.26 10.891C14.1098 9.03611 15.1404 6.51158 15.12 3.88508C15.12 3.74152 15.12 3.58952 15.12 3.43752C15.7791 2.94336 16.3476 2.33757 16.8 1.6473Z" fill="#2F302C"/>
</svg>
