<svg width="19" height="19" viewBox="0 0 19 19" fill="none" xmlns="http://www.w3.org/2000/svg">
<path d="M9.16667 0C4.10425 0 0 4.10088 0 9.15913C0 13.0414 2.41427 16.3583 5.82442 17.6926C5.74143 16.9689 5.67352 15.8532 5.85459 15.0617C6.02058 14.3455 6.92593 10.5085 6.92593 10.5085C6.92593 10.5085 6.65432 9.9582 6.65432 9.15159C6.65432 7.8776 7.39369 6.92777 8.31413 6.92777C9.09876 6.92777 9.47599 7.51576 9.47599 8.21683C9.47599 9.00082 8.97805 10.1768 8.71399 11.2699C8.4952 12.182 9.17421 12.9283 10.072 12.9283C11.7016 12.9283 12.954 11.2096 12.954 8.73698C12.954 6.54331 11.3772 5.01302 9.1214 5.01302C6.51097 5.01302 4.97942 6.96546 4.97942 8.98575C4.97942 9.76974 5.28121 10.614 5.65844 11.0739C5.73388 11.1643 5.74143 11.2473 5.71879 11.3377C5.65089 11.6242 5.49246 12.2499 5.46228 12.378C5.42455 12.5439 5.32647 12.5816 5.15295 12.4986C4.00617 11.9634 3.28944 10.2974 3.28944 8.94805C3.28944 6.06086 5.38683 3.40735 9.34774 3.40735C12.524 3.40735 14.9986 5.66886 14.9986 8.69929C14.9986 11.8579 13.0069 14.3983 10.2455 14.3983C9.31756 14.3983 8.44239 13.9158 8.14815 13.3429C8.14815 13.3429 7.68793 15.0918 7.57476 15.5215C7.37106 16.3206 6.81276 17.3157 6.43553 17.9263C7.29561 18.1901 8.20096 18.3333 9.15158 18.3333C14.214 18.3333 18.3182 14.2325 18.3182 9.1742C18.3333 4.10088 14.2291 0 9.16667 0Z" fill="#2F302C"/>
</svg>
